<?xml version="1.0" encoding="UTF-8" standalone="no"?>
<!DOCTYPE svg PUBLIC "-//W3C//DTD SVG 1.1//EN" "http://www.w3.org/Graphics/SVG/1.1/DTD/svg11.dtd">
<svg width="100%" height="100%" viewBox="0 0 1200 800" version="1.1" xmlns="http://www.w3.org/2000/svg" xmlns:xlink="http://www.w3.org/1999/xlink" xml:space="preserve" xmlns:serif="http://www.serif.com/" style="fill-rule:evenodd;clip-rule:evenodd;stroke-linejoin:round;stroke-miterlimit:2;">
    <g transform="matrix(1,0,0,1,-55,36)">
        <path d="M138.462,595.844L168.872,595.844L168.872,475.756L215.95,580.444C221.506,593.114 229.109,597.599 244.021,597.599C258.935,597.599 266.246,593.116 271.804,580.444L318.881,475.756L318.881,595.842L349.292,595.842L349.292,475.953C349.292,464.254 344.613,458.602 334.965,455.68C311.865,448.466 296.365,454.704 289.346,470.3L243.145,573.62L198.407,470.3C191.682,454.704 175.891,448.466 152.791,455.68C143.141,458.602 138.462,464.257 138.462,475.95L138.462,595.844ZM374.578,498.099L404.98,498.099L404.98,564.259C404.696,567.853 406.133,576.288 422.793,576.549C431.292,576.684 488.389,576.549 488.921,576.549L488.921,497.777L519.394,497.777C519.534,497.777 519.363,605.203 519.366,605.66C519.531,632.154 486.492,637.908 471.263,638.354L375.237,638.354L375.237,617.893C375.407,617.893 471.192,617.915 471.433,617.891C491.005,615.824 488.694,606.096 488.692,602.821L488.692,594.845L424.053,594.845C393.978,594.568 374.83,581.441 374.593,566.345C374.569,564.945 375.242,498.76 374.576,498.097L374.578,498.099Z" style="fill:rgb(0,97,138);fill-rule:nonzero;"/>
    </g>
    <g transform="matrix(1,0,0,1,-55,36)">
        <path d="M542.831,595.844L630.261,595.844C640.495,595.844 650.437,593.701 658.334,589.995C671.491,583.954 677.925,575.768 677.925,565.042L677.925,542.82C677.925,534.047 670.615,525.858 656.286,520.402C648.682,517.475 639.326,515.917 630.261,515.917L593.413,515.917C581.137,515.917 575.288,512.213 573.827,504.026C573.533,503.051 573.533,502.269 573.533,501.296L573.533,487.457C573.533,486.675 573.533,485.894 573.827,484.921C575.288,478.683 578.506,476.926 589.323,475.953C590.2,475.953 591.37,475.756 592.248,475.756L679.095,475.756L679.095,455.485L593.709,455.485C581.428,455.485 574.994,456.265 569.147,458.017C551.017,463.672 543.122,472.64 543.122,488.234L543.122,505.975C543.122,519.623 558.621,531.319 584.644,534.047C587.571,534.241 590.493,534.435 593.416,534.435L624.996,534.435C626.169,534.435 627.338,534.435 628.215,534.632C637.864,535.413 641.957,537.165 644.883,540.675C646.636,542.427 647.221,544.184 647.221,546.133L647.221,563.87C647.221,566.018 645.76,568.749 642.837,571.086C640.204,573.425 635.818,574.986 629.969,575.377C628.799,575.377 627.923,575.571 626.753,575.571L542.829,575.571L542.829,595.842L542.831,595.844ZM867.637,560.56C867.637,581.418 883.134,593.116 914.424,595.456C917.346,595.65 920.273,595.844 923.195,595.844L1002.44,595.844L1002.44,575.571L922.61,575.571C904.774,575.571 898.048,571.086 898.048,560.365L898.048,455.483L867.637,455.483L867.637,560.56ZM697.334,561.623L697.334,489.342C697.334,470.98 710.228,459.843 735.718,456.326C738.436,455.938 741.178,455.743 743.924,455.741L801.648,455.741C804.578,455.741 807.218,455.938 810.147,456.326C835.64,459.843 848.532,470.98 848.532,489.342L848.532,561.621C848.532,576.516 843.057,584.492 830.437,589.687L860.393,616.726L825.083,616.726L800.848,594.85L776.45,596.396L743.924,596.396C738.357,596.396 732.498,595.612 726.05,593.855C706.712,588.581 697.334,578.422 697.334,561.621L697.334,561.623ZM730.156,559.866C730.156,560.844 730.449,561.819 730.743,562.992C732.5,571.391 740.412,576.08 752.425,576.08L780.054,576.08L754.675,553.169L789.983,553.169L812.12,573.151C816.198,570.977 818.883,567.652 819.821,563.382C820.112,562.407 820.112,561.429 820.112,560.453L820.112,491.104C820.112,490.322 820.112,489.344 819.821,488.366C818.061,480.552 810.15,476.062 798.43,476.062L752.425,476.062C738.949,476.062 730.158,481.923 730.158,491.104L730.158,559.866L730.156,559.866Z" style="fill:rgb(228,142,0);fill-rule:nonzero;"/>
    </g>
    <g transform="matrix(1,0,0,1,-55,36)">
        <path d="M1029.19,421.851C1010.5,421.345 996.222,423.083 984.014,428.231C980.545,429.695 975.013,429.732 974.447,434.08C976.354,436.079 976.65,439.063 978.165,441.521C981.078,446.238 986.001,452.558 990.392,455.874C995.189,459.497 1000.13,463.369 1005.28,466.506C1014.43,472.083 1024.64,475.268 1033.45,480.857C1038.64,484.151 1043.8,488.3 1048.86,492.018C1051.37,493.855 1053.05,496.714 1056.3,497.867L1056.3,497.334C1054.59,495.158 1054.15,492.165 1052.58,489.891L1045.67,482.981C1038.92,474.013 1030.34,466.137 1021.22,459.594C1013.95,454.375 997.678,447.327 994.645,438.864L994.112,438.331C999.267,437.751 1005.3,435.885 1010.06,434.613C1018.05,432.468 1025.19,433.022 1033.45,430.89C1037.17,429.827 1040.89,428.762 1044.61,427.701L1044.61,425.574C1040.44,421.293 1037.46,415.628 1032.91,411.754C1021.01,401.619 1008.02,391.493 994.645,383.05C987.226,378.366 978.056,375.323 970.194,371.354C967.549,370.021 962.901,369.327 961.155,367.101C957.025,361.837 954.776,355.162 951.588,349.028C944.917,336.181 938.365,322.148 932.454,308.629C928.421,299.412 925.788,290.323 920.761,282.052C896.625,242.37 870.645,218.421 830.399,194.878C821.836,189.872 811.526,187.892 800.63,185.311L783.09,184.245C779.521,182.753 775.808,178.389 772.457,176.272C759.125,167.851 724.929,149.529 715.055,173.615C708.819,188.818 724.373,203.654 729.936,211.357C733.841,216.761 738.84,222.819 741.629,228.898C743.464,232.893 743.782,236.897 745.352,241.124C749.217,251.537 752.574,262.863 757.576,272.485C760.103,277.353 762.888,282.483 766.082,286.835C768.04,289.509 771.396,290.686 771.926,294.811C768.644,299.405 768.457,306.533 766.612,312.351C758.305,338.547 761.438,371.103 773.523,390.491C777.231,396.442 785.964,409.206 797.973,404.311C808.478,400.032 806.131,386.773 809.136,375.077C809.816,372.425 809.397,370.474 810.73,368.697L810.73,369.23L820.297,388.364C827.378,399.767 839.947,411.685 850.597,419.727C856.119,423.898 860.467,431.108 867.607,433.547L867.607,433.015L867.074,433.015C865.691,430.86 863.526,429.965 861.76,428.231C857.599,424.153 852.974,419.083 849.533,414.411C839.848,401.261 831.287,386.87 823.489,371.887C819.764,364.736 816.527,356.84 813.387,349.561C812.177,346.755 812.191,342.511 809.669,341.055C806.231,346.39 801.165,350.705 798.506,357.004C794.253,367.073 793.703,379.351 792.129,392.085C791.196,392.419 791.608,392.189 791.063,392.615C783.66,390.83 781.058,383.209 778.308,376.671C771.346,360.137 770.056,333.512 776.177,314.48C777.764,309.555 784.925,294.044 782.026,289.497C780.643,284.957 776.078,282.331 773.523,278.864C770.361,274.576 767.205,268.93 765.016,263.978C759.321,251.087 756.662,236.615 750.666,223.584C747.8,217.353 742.953,211.049 738.972,205.51C734.565,199.377 729.63,194.854 726.215,187.435C725.001,184.799 723.35,180.579 725.15,177.868C725.725,176.04 726.533,175.275 728.342,174.678C731.425,172.303 740.012,175.469 743.223,176.804C751.748,180.345 758.862,183.717 766.082,188.498C769.549,190.798 773.054,195.242 777.243,196.474L782.026,196.474C789.51,198.193 797.893,197.007 804.883,199.131C817.24,202.887 828.313,208.726 838.368,215.077C869.008,234.422 894.058,261.961 911.194,294.811C913.95,300.099 915.143,305.148 917.571,310.758C922.47,322.072 928.642,333.714 933.515,344.777C938.379,355.813 943.12,366.955 949.995,376.14C953.611,380.969 967.571,383.56 973.912,386.238C978.362,388.118 985.648,390.077 989.861,392.615C997.908,397.47 1005.7,403.248 1013.25,408.564C1017.02,411.221 1028.62,417.049 1029.19,421.851Z" style="fill:rgb(0,97,138);fill-rule:nonzero;"/>
    </g>
    <g transform="matrix(1,0,0,1,-55,36)">
        <path d="M791.596,219.331C787.698,219.26 784.941,219.757 782.026,220.391L782.026,220.924L782.559,220.924C784.418,224.744 787.698,227.202 790,230.491C791.77,234.213 793.543,237.934 795.316,241.654L795.846,241.124C799.138,238.803 800.647,235.093 800.63,229.43C799.311,228.043 799.114,226.3 797.973,224.645C796.453,222.437 793.512,221.187 791.596,219.331Z" style="fill:rgb(0,97,138);"/>
    </g>
    <g transform="matrix(1,0,0,1,-55,36)">
        <path d="M1016.71,574.993C1016.71,588.382 1027.29,597.405 1039.13,597.405C1050.96,597.405 1061.54,588.382 1061.54,574.993C1061.54,561.606 1050.96,552.584 1039.13,552.584C1027.29,552.584 1016.72,561.606 1016.72,574.993L1016.71,574.993ZM1056.52,574.993C1056.52,585.152 1048.75,592.744 1039.13,592.744C1029.39,592.744 1021.74,585.152 1021.74,574.993C1021.74,564.834 1029.38,557.242 1039.13,557.242C1048.75,557.242 1056.52,564.834 1056.52,574.993ZM1045.17,587.781L1050.18,587.781L1042.84,576.549C1046.78,576.13 1049.76,574.216 1049.76,569.556C1049.76,564.356 1046.48,562.205 1040.14,562.205L1030.16,562.205L1030.16,587.781L1034.47,587.781L1034.47,576.727L1038.47,576.727L1045.17,587.783L1045.17,587.781ZM1034.47,573.141L1034.47,565.791L1039.42,565.791C1042,565.791 1045.1,566.269 1045.1,569.258C1045.1,572.841 1042.3,573.141 1039.07,573.141L1034.47,573.141Z" style="fill:rgb(228,142,0);"/>
    </g>
</svg>
