<?xml version="1.0" encoding="UTF-8" standalone="no"?>
<!DOCTYPE svg PUBLIC "-//W3C//DTD SVG 1.1//EN" "http://www.w3.org/Graphics/SVG/1.1/DTD/svg11.dtd">
<svg width="100%" height="100%" viewBox="0 0 800 300" version="1.1" xmlns="http://www.w3.org/2000/svg" xmlns:xlink="http://www.w3.org/1999/xlink" xml:space="preserve" xmlns:serif="http://www.serif.com/" style="fill-rule:evenodd;clip-rule:evenodd;stroke-linejoin:round;stroke-miterlimit:2;">
    <g transform="matrix(0.309043,0,0,0.309043,17.7414,-250.639)">
        <path d="M1247.17,1108.52C1149.55,1108.52 1079.16,1172.18 1079.16,1267.68C1079.16,1363.19 1158.39,1426.85 1256.01,1426.85C1314.99,1426.85 1366.99,1403.51 1399.18,1364.16L1331.53,1325.07C1313.67,1344.62 1286.52,1356.02 1256.01,1356.02C1213.66,1356.02 1177.67,1333.92 1164.32,1298.55L1412.09,1298.55C1414.03,1288.64 1415.18,1278.38 1415.18,1267.6C1415.18,1172.18 1344.79,1108.52 1247.17,1108.52ZM1163.52,1236.74C1174.57,1201.45 1204.81,1179.26 1247.08,1179.26C1289.44,1179.26 1319.68,1201.45 1330.64,1236.74L1163.52,1236.74ZM2199.35,1108.52C2101.73,1108.52 2031.34,1172.18 2031.34,1267.68C2031.34,1363.19 2110.57,1426.85 2208.19,1426.85C2267.17,1426.85 2319.17,1403.51 2351.36,1364.16L2283.71,1325.07C2265.85,1344.62 2238.7,1356.02 2208.19,1356.02C2165.84,1356.02 2129.85,1333.92 2116.49,1298.55L2364.26,1298.55C2366.21,1288.64 2367.36,1278.38 2367.36,1267.6C2367.36,1172.18 2296.97,1108.52 2199.35,1108.52ZM2115.79,1236.74C2126.84,1201.45 2157.08,1179.26 2199.35,1179.26C2241.71,1179.26 2271.95,1201.45 2282.91,1236.74L2115.79,1236.74ZM1770.66,1267.68C1770.66,1320.74 1805.32,1356.11 1859.08,1356.11C1895.52,1356.11 1922.84,1339.58 1936.9,1312.61L2004.81,1351.78C1976.69,1398.64 1923.99,1426.85 1859.08,1426.85C1761.37,1426.85 1691.07,1363.19 1691.07,1267.68C1691.07,1172.18 1761.46,1108.52 1859.08,1108.52C1923.99,1108.52 1976.6,1136.73 2004.81,1183.59L1936.9,1222.77C1922.84,1195.79 1895.52,1179.26 1859.08,1179.26C1805.41,1179.26 1770.66,1214.63 1770.66,1267.68ZM2500,1011.25L2500,1418.01L2420.42,1418.01L2420.42,1011.25L2500,1011.25ZM326.737,967.035L653.473,1532.97L0,1532.97L326.737,967.035ZM1143.62,1011.25L898.592,1435.7L653.562,1011.25L745.437,1011.25L898.592,1276.53L1051.75,1011.25L1143.62,1011.25ZM1664.54,1117.36L1664.54,1203.05C1655.7,1200.48 1646.33,1198.71 1636.25,1198.71C1584.87,1198.71 1547.82,1234.08 1547.82,1287.14L1547.82,1418.01L1468.24,1418.01L1468.24,1117.36L1547.82,1117.36L1547.82,1198.71C1547.82,1153.79 1600.08,1117.36 1664.54,1117.36Z" style="fill:white;fill-rule:nonzero;"/>
    </g>
</svg>
